<svg width="124" height="167" viewBox="0 0 124 167" fill="none" xmlns="http://www.w3.org/2000/svg">
<path d="M26.1176 38.9529C5.22353 50.0965 0 81.9019 0 96.4118C20.8941 54.6235 64.4235 52.8823 92.2824 38.9529C114.569 27.8094 116.659 8.77252 114.918 0.647034C94.0235 8.77252 47.0118 27.8094 26.1176 38.9529Z" fill="#F21F3C"/>
<path d="M31.3412 79C9.05412 90.1435 1.16078 116.145 0 127.753C4.06275 119.627 19.8494 101.287 50.4941 92.9294C81.1388 84.5717 85.3176 66.2313 83.5765 58.1058C75.451 60.4274 53.6282 67.8564 31.3412 79Z" fill="#F21F3C"/>
<path d="M34.8235 110.341C8.35765 127.056 0.580392 154.451 0 166.059C24.3765 120.788 78.3529 122.529 100.988 113.824C119.096 106.859 123.624 87.7059 123.624 79C105.051 82.4824 61.2894 93.6259 34.8235 110.341Z" fill="#F21F3C"/>
</svg>
