<svg width="300" height="300" viewBox="0 0 300 300" fill="none" xmlns="http://www.w3.org/2000/svg">
<rect width="300" height="300" rx="10" fill="#01012C"/>
<path d="M114.682 107.953C93.7882 119.096 88.5647 150.902 88.5647 165.412C109.459 123.624 152.988 121.882 180.847 107.953C203.134 96.8094 205.224 77.7725 203.482 69.647C182.588 77.7725 135.576 96.8094 114.682 107.953Z" fill="#F21F3C"/>
<path d="M119.906 148C97.6188 159.143 89.7255 185.145 88.5647 196.753C92.6274 188.627 108.414 170.287 139.059 161.929C169.704 153.572 173.882 135.231 172.141 127.106C164.016 129.427 142.193 136.856 119.906 148Z" fill="#F21F3C"/>
<path d="M123.388 179.341C96.9223 196.056 89.1451 223.451 88.5647 235.059C112.941 189.788 166.918 191.529 189.553 182.824C207.661 175.859 212.188 156.706 212.188 148C193.616 151.482 149.854 162.626 123.388 179.341Z" fill="#F21F3C"/>
</svg>
